<mxfile host="65bd71144e">
    <diagram id="q14IiLRXBmb8PRQ_uYk1" name="Page-1">
        <mxGraphModel dx="734" dy="567" grid="0" gridSize="10" guides="1" tooltips="1" connect="1" arrows="1" fold="1" page="1" pageScale="1" pageWidth="1169" pageHeight="827" background="#ffffff" math="0" shadow="0">
            <root>
                <mxCell id="0"/>
                <mxCell id="1" parent="0"/>
                <mxCell id="84" style="edgeStyle=none;html=1;exitX=0.5;exitY=0;exitDx=0;exitDy=0;entryX=0.5;entryY=1;entryDx=0;entryDy=0;fontSize=15;fontColor=#000000;endArrow=none;endFill=0;strokeColor=#000000;startArrow=none;" parent="1" source="89" target="182" edge="1">
                    <mxGeometry relative="1" as="geometry">
                        <Array as="points"/>
                        <mxPoint x="1062" y="446.727" as="targetPoint"/>
                    </mxGeometry>
                </mxCell>
                <mxCell id="47" style="edgeStyle=none;html=1;exitX=1;exitY=0.5;exitDx=0;exitDy=0;entryX=0.007;entryY=0.151;entryDx=0;entryDy=0;entryPerimeter=0;fontSize=15;fontColor=#000000;startArrow=none;strokeColor=#000000;endArrow=none;endFill=0;" parent="1" source="57" target="207" edge="1">
                    <mxGeometry relative="1" as="geometry">
                        <mxPoint x="383.4499999999998" y="132.399" as="targetPoint"/>
                    </mxGeometry>
                </mxCell>
                <mxCell id="48" value="" style="edgeStyle=none;html=1;exitX=1;exitY=0.5;exitDx=0;exitDy=0;entryX=0;entryY=0.5;entryDx=0;entryDy=0;fontSize=15;fontColor=#000000;endArrow=none;startArrow=none;strokeColor=#000000;" parent="1" source="52" target="198" edge="1">
                    <mxGeometry relative="1" as="geometry">
                        <mxPoint x="150" y="131.5" as="sourcePoint"/>
                        <mxPoint x="215.9999999999992" y="132" as="targetPoint"/>
                    </mxGeometry>
                </mxCell>
                <mxCell id="49" style="edgeStyle=none;html=1;exitX=1;exitY=0.5;exitDx=0;exitDy=0;entryX=0.004;entryY=0.839;entryDx=0;entryDy=0;fontSize=15;fontColor=#000000;startArrow=none;entryPerimeter=0;endArrow=none;endFill=0;strokeColor=#000000;" parent="1" source="60" target="208" edge="1">
                    <mxGeometry relative="1" as="geometry">
                        <mxPoint x="382.54999999999995" y="270.03099999999984" as="targetPoint"/>
                    </mxGeometry>
                </mxCell>
                <mxCell id="51" value="" style="edgeStyle=none;html=1;exitX=1;exitY=0.5;exitDx=0;exitDy=0;entryX=0;entryY=0.5;entryDx=0;entryDy=0;fontSize=15;fontColor=#000000;endArrow=none;startArrow=none;strokeColor=#000000;" parent="1" source="54" target="196" edge="1">
                    <mxGeometry relative="1" as="geometry">
                        <mxPoint x="149.55" y="269.5" as="sourcePoint"/>
                        <mxPoint x="214.99999999999682" y="270" as="targetPoint"/>
                    </mxGeometry>
                </mxCell>
                <UserObject label="&lt;font style=&quot;font-size: 15px ; line-height: 1&quot;&gt;0,N&lt;/font&gt;" lucidchartObjectId="3bly9.hPKQTv" id="52">
                    <mxCell style="html=1;overflow=block;blockSpacing=1;whiteSpace=wrap;fontSize=20.2;spacing=3.8;strokeOpacity=0;fillOpacity=100;rounded=1;absoluteArcSize=1;arcSize=9;fillColor=none;strokeWidth=2;align=center;strokeColor=#000000;fontColor=#000000;" parent="1" vertex="1">
                        <mxGeometry x="168" y="115" width="35" height="34" as="geometry"/>
                    </mxCell>
                </UserObject>
                <mxCell id="53" value="" style="edgeStyle=none;html=1;exitX=1;exitY=0.5;exitDx=0;exitDy=0;entryX=0;entryY=0.5;entryDx=0;entryDy=0;fontSize=15;fontColor=#000000;endArrow=none;strokeColor=#000000;" parent="1" source="194" target="52" edge="1">
                    <mxGeometry relative="1" as="geometry">
                        <mxPoint x="121.99999999999989" y="131.5" as="sourcePoint"/>
                        <mxPoint x="216" y="132" as="targetPoint"/>
                    </mxGeometry>
                </mxCell>
                <UserObject label="&lt;font style=&quot;font-size: 15px ; line-height: 1&quot;&gt;0,N&lt;/font&gt;" lucidchartObjectId="3bly9.hPKQTv" id="54">
                    <mxCell style="html=1;overflow=block;blockSpacing=1;whiteSpace=wrap;fontSize=20.2;spacing=3.8;strokeOpacity=0;fillOpacity=100;rounded=1;absoluteArcSize=1;arcSize=9;fillColor=none;strokeWidth=2;align=center;strokeColor=#000000;fontColor=#000000;" parent="1" vertex="1">
                        <mxGeometry x="168" y="253" width="35" height="34" as="geometry"/>
                    </mxCell>
                </UserObject>
                <mxCell id="56" value="" style="edgeStyle=none;html=1;exitX=1;exitY=0.5;exitDx=0;exitDy=0;entryX=0;entryY=0.5;entryDx=0;entryDy=0;fontSize=15;fontColor=#000000;endArrow=none;strokeColor=#000000;" parent="1" source="191" target="54" edge="1">
                    <mxGeometry relative="1" as="geometry">
                        <mxPoint x="123.04999999999995" y="269.8589999999999" as="sourcePoint"/>
                        <mxPoint x="214.99999999999977" y="270" as="targetPoint"/>
                    </mxGeometry>
                </mxCell>
                <UserObject label="&lt;font style=&quot;font-size: 15px ; line-height: 1&quot;&gt;1,1&lt;/font&gt;" lucidchartObjectId="3bly9.hPKQTv" id="57">
                    <mxCell style="html=1;overflow=block;blockSpacing=1;whiteSpace=wrap;fontSize=20.2;spacing=3.8;strokeOpacity=0;fillOpacity=100;rounded=1;absoluteArcSize=1;arcSize=9;fillColor=none;strokeWidth=2;align=center;strokeColor=#000000;fontColor=#000000;" parent="1" vertex="1">
                        <mxGeometry x="317" y="115" width="35" height="34" as="geometry"/>
                    </mxCell>
                </UserObject>
                <mxCell id="58" value="" style="edgeStyle=none;html=1;exitX=1;exitY=0.5;exitDx=0;exitDy=0;entryX=0;entryY=0.5;entryDx=0;entryDy=0;fontSize=15;fontColor=#000000;startArrow=none;endArrow=none;strokeColor=#000000;" parent="1" source="198" target="57" edge="1">
                    <mxGeometry relative="1" as="geometry">
                        <mxPoint x="281.0000000000009" y="132" as="sourcePoint"/>
                        <mxPoint x="350.45000000000005" y="132.399" as="targetPoint"/>
                    </mxGeometry>
                </mxCell>
                <UserObject label="&lt;font style=&quot;font-size: 15px ; line-height: 1&quot;&gt;1,1&lt;/font&gt;" lucidchartObjectId="3bly9.hPKQTv" id="60">
                    <mxCell style="html=1;overflow=block;blockSpacing=1;whiteSpace=wrap;fontSize=20.2;spacing=3.8;strokeOpacity=0;fillOpacity=100;rounded=1;absoluteArcSize=1;arcSize=9;fillColor=none;strokeWidth=2;align=center;strokeColor=#000000;fontColor=#000000;" parent="1" vertex="1">
                        <mxGeometry x="317" y="253" width="35" height="34" as="geometry"/>
                    </mxCell>
                </UserObject>
                <mxCell id="61" value="" style="edgeStyle=none;html=1;exitX=1;exitY=0.5;exitDx=0;exitDy=0;entryX=0;entryY=0.5;entryDx=0;entryDy=0;fontSize=15;fontColor=#000000;startArrow=none;endArrow=none;strokeColor=#000000;" parent="1" source="196" target="60" edge="1">
                    <mxGeometry relative="1" as="geometry">
                        <mxPoint x="349.55000000000007" y="270.031" as="targetPoint"/>
                        <mxPoint x="280.45000000000323" y="270" as="sourcePoint"/>
                    </mxGeometry>
                </mxCell>
                <mxCell id="62" style="edgeStyle=none;html=1;exitX=1;exitY=0.5;exitDx=0;exitDy=0;fontSize=15;fontColor=#000000;startArrow=none;strokeColor=#000000;endArrow=none;endFill=0;entryX=-0.002;entryY=0.276;entryDx=0;entryDy=0;entryPerimeter=0;" parent="1" source="67" target="205" edge="1">
                    <mxGeometry relative="1" as="geometry">
                        <mxPoint x="727" y="170" as="targetPoint"/>
                    </mxGeometry>
                </mxCell>
                <mxCell id="64" value="" style="edgeStyle=none;html=1;exitX=1;exitY=0.5;exitDx=0;exitDy=0;entryX=0;entryY=0.5;entryDx=0;entryDy=0;fontSize=15;fontColor=#000000;endArrow=none;startArrow=none;strokeColor=#000000;" parent="1" source="65" target="203" edge="1">
                    <mxGeometry relative="1" as="geometry">
                        <mxPoint x="531" y="169.5" as="sourcePoint"/>
                        <mxPoint x="597" y="170" as="targetPoint"/>
                    </mxGeometry>
                </mxCell>
                <UserObject label="&lt;font style=&quot;font-size: 15px ; line-height: 1&quot;&gt;1,1&lt;/font&gt;" lucidchartObjectId="3bly9.hPKQTv" id="65">
                    <mxCell style="html=1;overflow=block;blockSpacing=1;whiteSpace=wrap;fontSize=20.2;spacing=3.8;strokeOpacity=0;fillOpacity=100;rounded=1;absoluteArcSize=1;arcSize=9;fillColor=none;strokeWidth=2;align=center;strokeColor=#000000;fontColor=#000000;" parent="1" vertex="1">
                        <mxGeometry x="547" y="153" width="35" height="34" as="geometry"/>
                    </mxCell>
                </UserObject>
                <mxCell id="66" value="" style="edgeStyle=none;html=1;exitX=0.996;exitY=0.224;exitDx=0;exitDy=0;entryX=0;entryY=0.5;entryDx=0;entryDy=0;fontSize=15;fontColor=#000000;endArrow=none;exitPerimeter=0;strokeColor=#000000;" parent="1" source="208" target="65" edge="1">
                    <mxGeometry relative="1" as="geometry">
                        <mxPoint x="532.8499999999999" y="169.98599999999988" as="sourcePoint"/>
                        <mxPoint x="592.55" y="194" as="targetPoint"/>
                    </mxGeometry>
                </mxCell>
                <UserObject label="&lt;font style=&quot;font-size: 15px ; line-height: 1&quot;&gt;0,N&lt;/font&gt;" lucidchartObjectId="3bly9.hPKQTv" id="67">
                    <mxCell style="html=1;overflow=block;blockSpacing=1;whiteSpace=wrap;fontSize=20.2;spacing=3.8;strokeOpacity=0;fillOpacity=100;rounded=1;absoluteArcSize=1;arcSize=9;fillColor=none;strokeWidth=2;align=center;strokeColor=#000000;fontColor=#000000;" parent="1" vertex="1">
                        <mxGeometry x="668" y="153" width="35" height="34" as="geometry"/>
                    </mxCell>
                </UserObject>
                <mxCell id="68" value="" style="edgeStyle=none;html=1;exitX=1;exitY=0.5;exitDx=0;exitDy=0;entryX=0;entryY=0.5;entryDx=0;entryDy=0;fontSize=15;fontColor=#000000;startArrow=none;endArrow=none;strokeColor=#000000;" parent="1" source="203" target="67" edge="1">
                    <mxGeometry relative="1" as="geometry">
                        <mxPoint x="662" y="170" as="sourcePoint"/>
                        <mxPoint x="731.45" y="170.399" as="targetPoint"/>
                    </mxGeometry>
                </mxCell>
                <mxCell id="70" style="edgeStyle=none;html=1;exitX=0.5;exitY=0;exitDx=0;exitDy=0;fontSize=15;fontColor=#000000;endArrow=none;endFill=0;strokeColor=#000000;startArrow=none;entryX=0.5;entryY=1;entryDx=0;entryDy=0;" parent="1" source="72" target="204" edge="1">
                    <mxGeometry relative="1" as="geometry">
                        <mxPoint x="802" y="315" as="targetPoint"/>
                    </mxGeometry>
                </mxCell>
                <mxCell id="71" style="edgeStyle=none;html=1;exitX=0.5;exitY=1;exitDx=0;exitDy=0;entryX=0.5;entryY=0;entryDx=0;entryDy=0;fontSize=15;fontColor=#000000;endArrow=none;endFill=0;strokeColor=#000000;startArrow=none;" parent="1" source="74" target="175" edge="1">
                    <mxGeometry relative="1" as="geometry">
                        <mxPoint x="802" y="515" as="targetPoint"/>
                    </mxGeometry>
                </mxCell>
                <UserObject label="&lt;font style=&quot;font-size: 15px ; line-height: 1&quot;&gt;1,N&lt;/font&gt;" lucidchartObjectId="3bly9.hPKQTv" id="72">
                    <mxCell style="html=1;overflow=block;blockSpacing=1;whiteSpace=wrap;fontSize=20.2;spacing=3.8;strokeOpacity=0;fillOpacity=100;rounded=1;absoluteArcSize=1;arcSize=9;fillColor=none;strokeWidth=2;align=center;strokeColor=#000000;fontColor=#000000;" parent="1" vertex="1">
                        <mxGeometry x="784.5" y="341" width="35" height="34" as="geometry"/>
                    </mxCell>
                </UserObject>
                <mxCell id="73" value="" style="edgeStyle=none;html=1;exitX=0.5;exitY=0;exitDx=0;exitDy=0;fontSize=15;fontColor=#000000;endArrow=none;endFill=0;strokeColor=#000000;entryX=0.5;entryY=1;entryDx=0;entryDy=0;" parent="1" source="202" target="72" edge="1">
                    <mxGeometry relative="1" as="geometry">
                        <mxPoint x="802" y="395" as="sourcePoint"/>
                        <mxPoint x="802" y="315" as="targetPoint"/>
                    </mxGeometry>
                </mxCell>
                <UserObject label="&lt;font style=&quot;font-size: 15px ; line-height: 1&quot;&gt;1,1&lt;/font&gt;" lucidchartObjectId="3bly9.hPKQTv" id="74">
                    <mxCell style="html=1;overflow=block;blockSpacing=1;whiteSpace=wrap;fontSize=20.2;spacing=3.8;strokeOpacity=0;fillOpacity=100;rounded=1;absoluteArcSize=1;arcSize=9;fillColor=none;strokeWidth=2;align=center;strokeColor=#000000;fontColor=#000000;" parent="1" vertex="1">
                        <mxGeometry x="784.5" y="461" width="35" height="34" as="geometry"/>
                    </mxCell>
                </UserObject>
                <mxCell id="75" value="" style="edgeStyle=none;html=1;exitX=0.5;exitY=1;exitDx=0;exitDy=0;entryX=0.5;entryY=0;entryDx=0;entryDy=0;fontSize=15;fontColor=#000000;endArrow=none;endFill=0;strokeColor=#000000;" parent="1" source="202" target="74" edge="1">
                    <mxGeometry relative="1" as="geometry">
                        <mxPoint x="802" y="436.9999999999998" as="sourcePoint"/>
                        <mxPoint x="802" y="515.0000000000001" as="targetPoint"/>
                    </mxGeometry>
                </mxCell>
                <mxCell id="78" style="edgeStyle=none;html=1;exitX=0;exitY=0.5;exitDx=0;exitDy=0;fontSize=15;fontColor=#000000;endArrow=none;endFill=0;strokeColor=#000000;startArrow=none;entryX=0.998;entryY=0.066;entryDx=0;entryDy=0;entryPerimeter=0;" parent="1" source="77" target="205" edge="1">
                    <mxGeometry relative="1" as="geometry">
                        <mxPoint x="878.2" y="132.426" as="targetPoint"/>
                    </mxGeometry>
                </mxCell>
                <UserObject label="&lt;font style=&quot;font-size: 15px ; line-height: 1&quot;&gt;1,1&lt;/font&gt;" lucidchartObjectId="3bly9.hPKQTv" id="77">
                    <mxCell style="html=1;overflow=block;blockSpacing=1;whiteSpace=wrap;fontSize=20.2;spacing=3.8;strokeOpacity=0;fillOpacity=100;rounded=1;absoluteArcSize=1;arcSize=9;fillColor=none;strokeWidth=2;align=center;strokeColor=#000000;" parent="1" vertex="1">
                        <mxGeometry x="907" y="115" width="35" height="34" as="geometry"/>
                    </mxCell>
                </UserObject>
                <mxCell id="80" value="" style="edgeStyle=none;html=1;exitX=0;exitY=0.5;exitDx=0;exitDy=0;entryX=1;entryY=0.5;entryDx=0;entryDy=0;fontSize=15;fontColor=#000000;endArrow=none;endFill=0;strokeColor=#000000;" parent="1" source="189" target="77" edge="1">
                    <mxGeometry relative="1" as="geometry">
                        <mxPoint x="967.0000000000018" y="132" as="sourcePoint"/>
                        <mxPoint x="877" y="131.5" as="targetPoint"/>
                    </mxGeometry>
                </mxCell>
                <mxCell id="83" style="edgeStyle=none;html=1;exitX=0.5;exitY=1;exitDx=0;exitDy=0;entryX=0.5;entryY=0;entryDx=0;entryDy=0;fontSize=15;fontColor=#000000;endArrow=none;endFill=0;strokeColor=#000000;" parent="1" source="81" target="182" edge="1">
                    <mxGeometry relative="1" as="geometry">
                        <mxPoint x="1062" y="245" as="targetPoint"/>
                    </mxGeometry>
                </mxCell>
                <UserObject label="&lt;font style=&quot;font-size: 15px ; line-height: 1&quot;&gt;1,1&lt;/font&gt;" lucidchartObjectId="3bly9.hPKQTv" id="81">
                    <mxCell style="html=1;overflow=block;blockSpacing=1;whiteSpace=wrap;fontSize=20.2;spacing=3.8;strokeOpacity=0;fillOpacity=100;rounded=1;absoluteArcSize=1;arcSize=9;fillColor=none;strokeWidth=2;align=center;strokeColor=#000000;" parent="1" vertex="1">
                        <mxGeometry x="1044.5" y="170" width="35" height="34" as="geometry"/>
                    </mxCell>
                </UserObject>
                <mxCell id="82" value="" style="edgeStyle=none;html=1;exitX=1;exitY=0.5;exitDx=0;exitDy=0;entryX=0.5;entryY=0;entryDx=0;entryDy=0;fontSize=15;fontColor=#000000;endArrow=none;endFill=0;strokeColor=#000000;" parent="1" source="189" target="81" edge="1">
                    <mxGeometry relative="1" as="geometry">
                        <mxPoint x="1031.9999999999982" y="132" as="sourcePoint"/>
                        <mxPoint x="1062" y="245" as="targetPoint"/>
                        <Array as="points">
                            <mxPoint x="1062" y="132"/>
                        </Array>
                    </mxGeometry>
                </mxCell>
                <mxCell id="86" value="" style="edgeStyle=none;html=1;exitX=1;exitY=0.5;exitDx=0;exitDy=0;entryX=0;entryY=0.5;entryDx=0;entryDy=0;fontSize=15;fontColor=#000000;endArrow=none;endFill=0;strokeColor=#000000;startArrow=none;" parent="1" source="87" target="188" edge="1">
                    <mxGeometry relative="1" as="geometry">
                        <mxPoint x="877" y="550" as="sourcePoint"/>
                        <mxPoint x="967.0000000000039" y="550" as="targetPoint"/>
                        <Array as="points"/>
                    </mxGeometry>
                </mxCell>
                <UserObject label="&lt;font style=&quot;font-size: 15px ; line-height: 1&quot;&gt;1,1&lt;/font&gt;" lucidchartObjectId="3bly9.hPKQTv" id="87">
                    <mxCell style="html=1;overflow=block;blockSpacing=1;whiteSpace=wrap;fontSize=20.2;spacing=3.8;strokeOpacity=0;fillOpacity=100;rounded=1;absoluteArcSize=1;arcSize=9;fillColor=none;strokeWidth=2;align=center;strokeColor=#000000;" parent="1" vertex="1">
                        <mxGeometry x="907" y="533" width="35" height="34" as="geometry"/>
                    </mxCell>
                </UserObject>
                <mxCell id="88" value="" style="edgeStyle=none;html=1;entryX=0;entryY=0.5;entryDx=0;entryDy=0;fontSize=15;fontColor=#000000;endArrow=none;endFill=0;strokeColor=#000000;exitX=1.014;exitY=0.131;exitDx=0;exitDy=0;exitPerimeter=0;" parent="1" target="87" edge="1">
                    <mxGeometry relative="1" as="geometry">
                        <mxPoint x="879.0999999999999" y="550.3699999999999" as="sourcePoint"/>
                        <mxPoint x="966.9999999999925" y="650" as="targetPoint"/>
                        <Array as="points"/>
                    </mxGeometry>
                </mxCell>
                <UserObject label="&lt;font style=&quot;font-size: 15px ; line-height: 1&quot;&gt;1,1&lt;/font&gt;" lucidchartObjectId="3bly9.hPKQTv" id="89">
                    <mxCell style="html=1;overflow=block;blockSpacing=1;whiteSpace=wrap;fontSize=20.2;spacing=3.8;strokeOpacity=0;fillOpacity=100;rounded=1;absoluteArcSize=1;arcSize=9;fillColor=none;strokeWidth=2;align=center;strokeColor=#000000;fontColor=#000000;" parent="1" vertex="1">
                        <mxGeometry x="1044.5" y="475" width="35" height="34" as="geometry"/>
                    </mxCell>
                </UserObject>
                <mxCell id="90" value="" style="edgeStyle=none;html=1;exitX=1;exitY=0.5;exitDx=0;exitDy=0;entryX=0.5;entryY=1.011;entryDx=0;entryDy=0;entryPerimeter=0;fontSize=15;fontColor=#000000;endArrow=none;endFill=0;strokeColor=#000000;startArrow=none;" parent="1" source="188" target="89" edge="1">
                    <mxGeometry relative="1" as="geometry">
                        <mxPoint x="1031.9999999999964" y="550" as="sourcePoint"/>
                        <mxPoint x="1062" y="436.727" as="targetPoint"/>
                        <Array as="points">
                            <mxPoint x="1062" y="550"/>
                        </Array>
                    </mxGeometry>
                </mxCell>
                <mxCell id="93" value="" style="edgeStyle=none;html=1;exitX=1;exitY=0.5;exitDx=0;exitDy=0;entryX=0;entryY=0.5;entryDx=0;entryDy=0;fontSize=15;fontColor=#000000;endArrow=none;endFill=0;strokeColor=#000000;startArrow=none;" parent="1" source="94" target="179" edge="1">
                    <mxGeometry relative="1" as="geometry">
                        <mxPoint x="877" y="637.5" as="sourcePoint"/>
                        <mxPoint x="942.0000000000025" y="709" as="targetPoint"/>
                        <Array as="points"/>
                    </mxGeometry>
                </mxCell>
                <UserObject label="&lt;font style=&quot;font-size: 15px ; line-height: 1&quot;&gt;1,1&lt;/font&gt;" lucidchartObjectId="3bly9.hPKQTv" id="94">
                    <mxCell style="html=1;overflow=block;blockSpacing=1;whiteSpace=wrap;fontSize=20.2;spacing=3.8;strokeOpacity=0;fillOpacity=100;rounded=1;absoluteArcSize=1;arcSize=9;fillColor=none;strokeWidth=2;align=center;strokeColor=#000000;fontColor=#000000;" parent="1" vertex="1">
                        <mxGeometry x="880" y="692" width="35" height="34" as="geometry"/>
                    </mxCell>
                </UserObject>
                <mxCell id="95" value="" style="edgeStyle=none;html=1;exitX=0.994;exitY=0.811;exitDx=0;exitDy=0;entryX=0;entryY=0.5;entryDx=0;entryDy=0;fontSize=15;fontColor=#000000;endArrow=none;endFill=0;strokeColor=#000000;exitPerimeter=0;" parent="1" source="176" target="94" edge="1">
                    <mxGeometry relative="1" as="geometry">
                        <mxPoint x="876.8499999999999" y="637.6769999999999" as="sourcePoint"/>
                        <mxPoint x="966.9999999999925" y="718" as="targetPoint"/>
                        <Array as="points"/>
                    </mxGeometry>
                </mxCell>
                <UserObject label="&lt;font style=&quot;font-size: 15px ; line-height: 1&quot;&gt;0,N&lt;/font&gt;" lucidchartObjectId="3bly9.hPKQTv" id="96">
                    <mxCell style="html=1;overflow=block;blockSpacing=1;whiteSpace=wrap;fontSize=20.2;spacing=3.8;strokeOpacity=0;fillOpacity=100;rounded=1;absoluteArcSize=1;arcSize=9;fillColor=none;strokeWidth=2;align=center;strokeColor=#000000;fontColor=#000000;" parent="1" vertex="1">
                        <mxGeometry x="985" y="692" width="35" height="34" as="geometry"/>
                    </mxCell>
                </UserObject>
                <mxCell id="107" style="edgeStyle=none;html=1;exitX=0.5;exitY=0;exitDx=0;exitDy=0;entryX=0.5;entryY=1;entryDx=0;entryDy=0;fontSize=15;fontColor=#000000;endArrow=none;endFill=0;strokeColor=#000000;startArrow=none;" parent="1" source="111" target="161" edge="1">
                    <mxGeometry relative="1" as="geometry">
                        <mxPoint x="500" y="592.104" as="targetPoint"/>
                    </mxGeometry>
                </mxCell>
                <UserObject label="&lt;font style=&quot;font-size: 15px ; line-height: 1&quot;&gt;1,N&lt;/font&gt;" lucidchartObjectId="3bly9.hPKQTv" id="109">
                    <mxCell style="html=1;overflow=block;blockSpacing=1;whiteSpace=wrap;fontSize=20.2;spacing=3.8;strokeOpacity=0;fillOpacity=100;rounded=1;absoluteArcSize=1;arcSize=9;fillColor=none;strokeWidth=2;align=center;strokeColor=#000000;fontColor=#000000;" parent="1" vertex="1">
                        <mxGeometry x="692" y="693" width="35" height="34" as="geometry"/>
                    </mxCell>
                </UserObject>
                <mxCell id="110" value="" style="edgeStyle=none;html=1;fontSize=15;fontColor=#000000;endArrow=none;endFill=0;strokeColor=#000000;exitX=1;exitY=0;exitDx=0;exitDy=0;entryX=0;entryY=0.5;entryDx=0;entryDy=0;" parent="1" source="170" target="109" edge="1">
                    <mxGeometry relative="1" as="geometry">
                        <mxPoint x="652.45" y="709.405" as="sourcePoint"/>
                        <mxPoint x="678" y="709" as="targetPoint"/>
                    </mxGeometry>
                </mxCell>
                <UserObject label="&lt;font style=&quot;font-size: 15px ; line-height: 1&quot;&gt;1,N&lt;/font&gt;" lucidchartObjectId="3bly9.hPKQTv" id="111">
                    <mxCell style="html=1;overflow=block;blockSpacing=1;whiteSpace=wrap;fontSize=20.2;spacing=3.8;strokeOpacity=0;fillOpacity=100;rounded=1;absoluteArcSize=1;arcSize=9;fillColor=none;strokeWidth=2;align=center;strokeColor=#000000;fontColor=#000000;" parent="1" vertex="1">
                        <mxGeometry x="482.5" y="619" width="35" height="34" as="geometry"/>
                    </mxCell>
                </UserObject>
                <mxCell id="112" value="" style="edgeStyle=none;html=1;exitX=0;exitY=0;exitDx=0;exitDy=0;entryX=0.5;entryY=1;entryDx=0;entryDy=0;fontSize=15;fontColor=#000000;endArrow=none;endFill=0;strokeColor=#000000;" parent="1" source="170" target="111" edge="1">
                    <mxGeometry relative="1" as="geometry">
                        <mxPoint x="545.5" y="711.25" as="sourcePoint"/>
                        <mxPoint x="144" y="549.6650000000001" as="targetPoint"/>
                        <Array as="points">
                            <mxPoint x="500" y="711"/>
                        </Array>
                    </mxGeometry>
                </mxCell>
                <mxCell id="121" style="edgeStyle=none;html=1;exitX=0.5;exitY=1;exitDx=0;exitDy=0;entryX=0.5;entryY=0;entryDx=0;entryDy=0;fontSize=15;fontColor=#000000;endArrow=none;endFill=0;strokeColor=#000000;" parent="1" source="113" target="160" edge="1">
                    <mxGeometry relative="1" as="geometry">
                        <mxPoint x="500" y="501.9999999999999" as="targetPoint"/>
                    </mxGeometry>
                </mxCell>
                <UserObject label="&lt;font style=&quot;font-size: 15px ; line-height: 1&quot;&gt;1,1&lt;/font&gt;" lucidchartObjectId="3bly9.hPKQTv" id="113">
                    <mxCell style="html=1;overflow=block;blockSpacing=1;whiteSpace=wrap;fontSize=20.2;spacing=3.8;strokeOpacity=0;fillOpacity=100;rounded=1;absoluteArcSize=1;arcSize=9;fillColor=none;strokeWidth=2;align=center;strokeColor=#000000;fontColor=#000000;" parent="1" vertex="1">
                        <mxGeometry x="482.5" y="455" width="35" height="34" as="geometry"/>
                    </mxCell>
                </UserObject>
                <mxCell id="119" style="edgeStyle=none;html=1;exitX=0.5;exitY=0;exitDx=0;exitDy=0;entryX=0.5;entryY=1;entryDx=0;entryDy=0;fontSize=15;fontColor=#000000;endArrow=none;endFill=0;strokeColor=#000000;" parent="1" source="115" edge="1">
                    <mxGeometry relative="1" as="geometry">
                        <mxPoint x="500" y="296.5" as="targetPoint"/>
                    </mxGeometry>
                </mxCell>
                <UserObject label="&lt;font style=&quot;font-size: 15px ; line-height: 1&quot;&gt;0,N&lt;/font&gt;" lucidchartObjectId="3bly9.hPKQTv" id="115">
                    <mxCell style="html=1;overflow=block;blockSpacing=1;whiteSpace=wrap;fontSize=20.2;spacing=3.8;strokeOpacity=0;fillOpacity=100;rounded=1;absoluteArcSize=1;arcSize=9;fillColor=none;strokeWidth=2;align=center;strokeColor=#000000;fontColor=#000000;" parent="1" vertex="1">
                        <mxGeometry x="482.5" y="324" width="35" height="34" as="geometry"/>
                    </mxCell>
                </UserObject>
                <mxCell id="124" style="edgeStyle=none;html=1;exitX=0.5;exitY=0;exitDx=0;exitDy=0;entryX=0.996;entryY=0.858;entryDx=0;entryDy=0;entryPerimeter=0;fontSize=15;fontColor=#000000;endArrow=none;endFill=0;strokeColor=#000000;startArrow=none;" parent="1" source="126" target="208" edge="1">
                    <mxGeometry relative="1" as="geometry">
                        <Array as="points">
                            <mxPoint x="636" y="274"/>
                        </Array>
                        <mxPoint x="535.7" y="273.58399999999995" as="targetPoint"/>
                    </mxGeometry>
                </mxCell>
                <mxCell id="125" style="edgeStyle=none;html=1;exitX=0.5;exitY=1;exitDx=0;exitDy=0;entryX=0.011;entryY=0.056;entryDx=0;entryDy=0;entryPerimeter=0;fontSize=15;fontColor=#000000;endArrow=none;endFill=0;strokeColor=#000000;startArrow=none;" parent="1" source="129" target="176" edge="1">
                    <mxGeometry relative="1" as="geometry">
                        <Array as="points">
                            <mxPoint x="636" y="573"/>
                        </Array>
                        <mxPoint x="725.05" y="572.6389999999999" as="targetPoint"/>
                    </mxGeometry>
                </mxCell>
                <mxCell id="128" style="edgeStyle=none;html=1;exitX=0.5;exitY=1;exitDx=0;exitDy=0;entryX=0.5;entryY=0;entryDx=0;entryDy=0;fontSize=15;fontColor=#000000;endArrow=none;endFill=0;strokeColor=#000000;" parent="1" source="126" target="171" edge="1">
                    <mxGeometry relative="1" as="geometry">
                        <mxPoint x="636" y="383" as="targetPoint"/>
                    </mxGeometry>
                </mxCell>
                <UserObject label="&lt;font style=&quot;font-size: 15px ; line-height: 1&quot;&gt;0,N&lt;/font&gt;" lucidchartObjectId="3bly9.hPKQTv" id="126">
                    <mxCell style="html=1;overflow=block;blockSpacing=1;whiteSpace=wrap;fontSize=20.2;spacing=3.8;strokeOpacity=0;fillOpacity=100;rounded=1;absoluteArcSize=1;arcSize=9;fillColor=none;strokeWidth=2;align=center;strokeColor=#000000;fontColor=#000000;" parent="1" vertex="1">
                        <mxGeometry x="618.5" y="291" width="35" height="34" as="geometry"/>
                    </mxCell>
                </UserObject>
                <UserObject label="&lt;font style=&quot;font-size: 15px ; line-height: 1&quot;&gt;0,N&lt;/font&gt;" lucidchartObjectId="3bly9.hPKQTv" id="129">
                    <mxCell style="html=1;overflow=block;blockSpacing=1;whiteSpace=wrap;fontSize=20.2;spacing=3.8;strokeOpacity=0;fillOpacity=100;rounded=1;absoluteArcSize=1;arcSize=9;fillColor=none;strokeWidth=2;align=center;strokeColor=#000000;fontColor=#000000;" parent="1" vertex="1">
                        <mxGeometry x="618.5" y="494" width="35" height="34" as="geometry"/>
                    </mxCell>
                </UserObject>
                <mxCell id="130" value="" style="edgeStyle=none;html=1;exitX=0.5;exitY=1;exitDx=0;exitDy=0;entryX=0.5;entryY=0;entryDx=0;entryDy=0;fontSize=15;fontColor=#000000;endArrow=none;endFill=0;strokeColor=#000000;" parent="1" source="172" target="129" edge="1">
                    <mxGeometry relative="1" as="geometry">
                        <mxPoint x="636" y="449" as="sourcePoint"/>
                        <mxPoint x="725.05" y="593.6390000000001" as="targetPoint"/>
                        <Array as="points"/>
                    </mxGeometry>
                </mxCell>
                <UserObject label="&lt;font style=&quot;font-size: 15px ; line-height: 1&quot;&gt;1,1&lt;/font&gt;" lucidchartObjectId="3bly9.hPKQTv" id="131">
                    <mxCell style="html=1;overflow=block;blockSpacing=1;whiteSpace=wrap;fontSize=20.2;spacing=3.8;strokeOpacity=0;fillOpacity=100;rounded=1;absoluteArcSize=1;arcSize=9;fillColor=none;strokeWidth=2;align=center;strokeColor=#000000;fontColor=#000000;" parent="1" vertex="1">
                        <mxGeometry x="907" y="115" width="35" height="34" as="geometry"/>
                    </mxCell>
                </UserObject>
                <UserObject label="&lt;font style=&quot;font-size: 15px ; line-height: 1&quot;&gt;1,1&lt;/font&gt;" lucidchartObjectId="3bly9.hPKQTv" id="132">
                    <mxCell style="html=1;overflow=block;blockSpacing=1;whiteSpace=wrap;fontSize=20.2;spacing=3.8;strokeOpacity=0;fillOpacity=100;rounded=1;absoluteArcSize=1;arcSize=9;fillColor=none;strokeWidth=2;align=center;strokeColor=#000000;fontColor=#000000;" parent="1" vertex="1">
                        <mxGeometry x="1044.5" y="170" width="35" height="34" as="geometry"/>
                    </mxCell>
                </UserObject>
                <UserObject label="&lt;font style=&quot;font-size: 15px ; line-height: 1&quot;&gt;1,1&lt;/font&gt;" lucidchartObjectId="3bly9.hPKQTv" id="133">
                    <mxCell style="html=1;overflow=block;blockSpacing=1;whiteSpace=wrap;fontSize=20.2;spacing=3.8;strokeOpacity=0;fillOpacity=100;rounded=1;absoluteArcSize=1;arcSize=9;fillColor=none;strokeWidth=2;align=center;strokeColor=#000000;fontColor=#000000;" parent="1" vertex="1">
                        <mxGeometry x="907" y="533" width="35" height="34" as="geometry"/>
                    </mxCell>
                </UserObject>
                <mxCell id="135" value="" style="edgeStyle=none;html=1;fontSize=15;fontColor=#000000;endArrow=none;endFill=0;strokeColor=#000000;exitX=1;exitY=0.5;exitDx=0;exitDy=0;entryX=0.005;entryY=0.815;entryDx=0;entryDy=0;entryPerimeter=0;" parent="1" source="109" target="176" edge="1">
                    <mxGeometry relative="1" as="geometry">
                        <mxPoint x="669.4499999999998" y="719" as="sourcePoint"/>
                        <mxPoint x="727.3" y="709.9739999999999" as="targetPoint"/>
                    </mxGeometry>
                </mxCell>
                <mxCell id="139" style="edgeStyle=none;html=1;exitX=0.5;exitY=1;exitDx=0;exitDy=0;entryX=0.5;entryY=0;entryDx=0;entryDy=0;fontSize=15;fontColor=#000000;endArrow=none;endFill=0;strokeColor=#000000;" parent="1" source="201" target="113" edge="1">
                    <mxGeometry relative="1" as="geometry">
                        <mxPoint x="500.0050000000001" y="412" as="sourcePoint"/>
                        <mxPoint x="473" y="615" as="targetPoint"/>
                    </mxGeometry>
                </mxCell>
                <UserObject label="&lt;font style=&quot;font-size: 15px ; line-height: 1&quot;&gt;0,N&lt;/font&gt;" lucidchartObjectId="3bly9.hPKQTv" id="142">
                    <mxCell style="html=1;overflow=block;blockSpacing=1;whiteSpace=wrap;fontSize=20.2;spacing=3.8;strokeOpacity=0;fillOpacity=100;rounded=1;absoluteArcSize=1;arcSize=35;fillColor=none;strokeWidth=2;align=center;strokeColor=#000000;fontColor=#000000;" parent="1" vertex="1">
                        <mxGeometry x="387" y="447" width="35" height="34" as="geometry"/>
                    </mxCell>
                </UserObject>
                <mxCell id="144" style="edgeStyle=none;html=1;exitX=1;exitY=0.5;exitDx=0;exitDy=0;entryX=0;entryY=0.5;entryDx=0;entryDy=0;fontSize=15;fontColor=#000000;endArrow=none;endFill=0;strokeColor=#000000;" parent="1" source="200" target="142" edge="1">
                    <mxGeometry relative="1" as="geometry">
                        <mxPoint x="262.4499999999996" y="464" as="sourcePoint"/>
                        <mxPoint x="434.9999999999998" y="519" as="targetPoint"/>
                    </mxGeometry>
                </mxCell>
                <mxCell id="145" style="edgeStyle=none;html=1;exitX=0.129;exitY=1.005;exitDx=0;exitDy=0;entryX=1;entryY=0.5;entryDx=0;entryDy=0;fontSize=15;fontColor=#000000;endArrow=none;endFill=0;strokeColor=#000000;exitPerimeter=0;" parent="1" target="142" edge="1">
                    <mxGeometry relative="1" as="geometry">
                        <mxPoint x="458.88300000000004" y="297.3175000000001" as="sourcePoint"/>
                        <mxPoint x="442.0000000000002" y="464" as="targetPoint"/>
                        <Array as="points">
                            <mxPoint x="459" y="464"/>
                        </Array>
                    </mxGeometry>
                </mxCell>
                <mxCell id="146" style="edgeStyle=none;html=1;exitX=0;exitY=0.5;exitDx=0;exitDy=0;fontSize=15;fontColor=#000000;endArrow=none;endFill=0;strokeColor=#000000;entryX=1;entryY=0.5;entryDx=0;entryDy=0;" parent="1" source="200" target="147" edge="1">
                    <mxGeometry relative="1" as="geometry">
                        <mxPoint x="197.00000000000023" y="464" as="sourcePoint"/>
                        <mxPoint x="160" y="464" as="targetPoint"/>
                    </mxGeometry>
                </mxCell>
                <UserObject label="&lt;font style=&quot;font-size: 15px ; line-height: 1&quot;&gt;1,1&lt;/font&gt;" lucidchartObjectId="3bly9.hPKQTv" id="147">
                    <mxCell style="html=1;overflow=block;blockSpacing=1;whiteSpace=wrap;fontSize=20.2;spacing=3.8;strokeOpacity=0;fillOpacity=100;rounded=1;absoluteArcSize=1;arcSize=35;fillColor=none;strokeWidth=2;align=center;strokeColor=#000000;fontColor=#000000;" parent="1" vertex="1">
                        <mxGeometry x="242" y="447" width="35" height="34" as="geometry"/>
                    </mxCell>
                </UserObject>
                <mxCell id="148" style="edgeStyle=none;html=1;exitX=0;exitY=0.5;exitDx=0;exitDy=0;fontSize=15;fontColor=#000000;endArrow=none;endFill=0;strokeColor=#000000;entryX=0.75;entryY=0;entryDx=0;entryDy=0;" parent="1" source="147" target="158" edge="1">
                    <mxGeometry relative="1" as="geometry">
                        <mxPoint x="214.99999999999875" y="402" as="sourcePoint"/>
                        <mxPoint x="83" y="497.5" as="targetPoint"/>
                        <Array as="points">
                            <mxPoint x="194" y="464"/>
                        </Array>
                    </mxGeometry>
                </mxCell>
                <UserObject label="&lt;font style=&quot;font-size: 15px ; line-height: 1&quot;&gt;1,N&lt;/font&gt;" lucidchartObjectId="3bly9.hPKQTv" id="151">
                    <mxCell style="html=1;overflow=block;blockSpacing=1;whiteSpace=wrap;fontSize=20.2;spacing=3.8;strokeOpacity=0;fillOpacity=100;rounded=1;absoluteArcSize=1;arcSize=9;fillColor=none;strokeWidth=2;align=center;strokeColor=#000000;fontColor=#000000;" parent="1" vertex="1">
                        <mxGeometry x="231" y="537" width="35" height="34" as="geometry"/>
                    </mxCell>
                </UserObject>
                <UserObject label="&lt;font style=&quot;font-size: 15px ; line-height: 1&quot;&gt;0,N&lt;/font&gt;" lucidchartObjectId="3bly9.hPKQTv" id="152">
                    <mxCell style="html=1;overflow=block;blockSpacing=1;whiteSpace=wrap;fontSize=20.2;spacing=3.8;strokeOpacity=0;fillOpacity=100;rounded=1;absoluteArcSize=1;arcSize=35;fillColor=none;strokeWidth=2;align=center;strokeColor=#000000;fontColor=#000000;" parent="1" vertex="1">
                        <mxGeometry x="404" y="537" width="35" height="34" as="geometry"/>
                    </mxCell>
                </UserObject>
                <mxCell id="154" style="edgeStyle=none;html=1;entryX=1;entryY=0.5;entryDx=0;entryDy=0;fontSize=15;fontColor=#000000;endArrow=none;endFill=0;strokeColor=#000000;startArrow=none;exitX=-0.016;exitY=0.172;exitDx=0;exitDy=0;exitPerimeter=0;" parent="1" source="161" target="152" edge="1">
                    <mxGeometry relative="1" as="geometry">
                        <mxPoint x="410" y="554" as="sourcePoint"/>
                        <mxPoint x="462" y="613.608" as="targetPoint"/>
                    </mxGeometry>
                </mxCell>
                <mxCell id="155" style="edgeStyle=none;html=1;entryX=0;entryY=0.5;entryDx=0;entryDy=0;fontSize=15;fontColor=#000000;endArrow=none;endFill=0;strokeColor=#000000;startArrow=none;exitX=1;exitY=0.25;exitDx=0;exitDy=0;" parent="1" source="167" target="152" edge="1">
                    <mxGeometry relative="1" as="geometry">
                        <mxPoint x="326" y="554" as="sourcePoint"/>
                        <mxPoint x="462" y="613.608" as="targetPoint"/>
                    </mxGeometry>
                </mxCell>
                <mxCell id="156" style="edgeStyle=none;html=1;exitX=0.999;exitY=0.189;exitDx=0;exitDy=0;entryX=0;entryY=0.5;entryDx=0;entryDy=0;fontSize=15;fontColor=#000000;endArrow=none;endFill=0;strokeColor=#000000;startArrow=none;exitPerimeter=0;" parent="1" source="159" target="151" edge="1">
                    <mxGeometry relative="1" as="geometry">
                        <mxPoint x="142.95000000000005" y="548.6600000000001" as="sourcePoint"/>
                        <mxPoint x="484" y="613.6080000000002" as="targetPoint"/>
                    </mxGeometry>
                </mxCell>
                <mxCell id="157" style="edgeStyle=none;html=1;entryX=1;entryY=0.5;entryDx=0;entryDy=0;fontSize=15;fontColor=#000000;endArrow=none;endFill=0;strokeColor=#000000;startArrow=none;exitX=0;exitY=0.25;exitDx=0;exitDy=0;" parent="1" source="167" target="151" edge="1">
                    <mxGeometry relative="1" as="geometry">
                        <mxPoint x="176" y="554" as="sourcePoint"/>
                        <mxPoint x="141" y="553" as="targetPoint"/>
                    </mxGeometry>
                </mxCell>
                <mxCell id="158" value="MATCH" style="swimlane;childLayout=stackLayout;horizontal=1;startSize=30;horizontalStack=0;rounded=1;fontSize=14;fontStyle=0;strokeWidth=2;resizeParent=0;resizeLast=1;shadow=0;dashed=0;align=center;fillColor=#1ba1e2;fontColor=#ffffff;strokeColor=none;swimlaneLine=0;" parent="1" vertex="1">
                    <mxGeometry x="118.5" y="518" width="101" height="63" as="geometry">
                        <mxRectangle x="206" y="605" width="76" height="30" as="alternateBounds"/>
                    </mxGeometry>
                </mxCell>
                <mxCell id="159" value="name" style="align=center;strokeColor=none;fillColor=#cce5ff;spacingLeft=4;fontSize=12;verticalAlign=middle;resizable=0;rotatable=0;part=1;fontColor=#000000;" parent="158" vertex="1">
                    <mxGeometry y="30" width="101" height="33" as="geometry"/>
                </mxCell>
                <mxCell id="160" value="TEAM" style="swimlane;childLayout=stackLayout;horizontal=1;startSize=30;horizontalStack=0;rounded=1;fontSize=14;fontStyle=0;strokeWidth=2;resizeParent=0;resizeLast=1;shadow=0;dashed=0;align=center;fillColor=#1ba1e2;fontColor=#ffffff;strokeColor=none;swimlaneLine=0;" parent="1" vertex="1">
                    <mxGeometry x="449.5" y="518" width="101" height="63" as="geometry">
                        <mxRectangle x="206" y="605" width="76" height="30" as="alternateBounds"/>
                    </mxGeometry>
                </mxCell>
                <mxCell id="161" value="name" style="align=center;strokeColor=none;fillColor=#cce5ff;spacingLeft=4;fontSize=12;verticalAlign=middle;resizable=0;rotatable=0;part=1;fontColor=#000000;" parent="160" vertex="1">
                    <mxGeometry y="30" width="101" height="33" as="geometry"/>
                </mxCell>
                <mxCell id="166" value="COMPOSE" style="swimlane;childLayout=stackLayout;horizontal=1;startSize=30;horizontalStack=0;rounded=1;fontSize=14;fontStyle=0;strokeWidth=2;resizeParent=0;resizeLast=1;shadow=0;dashed=0;align=center;fillColor=#fad9d5;strokeColor=none;swimlaneLine=0;fontColor=#000000;" parent="1" vertex="1">
                    <mxGeometry x="278.22" y="512.5" width="113" height="75" as="geometry">
                        <mxRectangle x="206" y="605" width="76" height="30" as="alternateBounds"/>
                    </mxGeometry>
                </mxCell>
                <mxCell id="167" value="is winner&#10;score" style="align=center;strokeColor=none;fillColor=#ffcccc;spacingLeft=4;fontSize=12;verticalAlign=middle;resizable=0;rotatable=0;part=1;fontColor=#000000;" parent="166" vertex="1">
                    <mxGeometry y="30" width="113" height="45" as="geometry"/>
                </mxCell>
                <mxCell id="169" value="PLAYER" style="swimlane;childLayout=stackLayout;horizontal=1;startSize=30;horizontalStack=0;rounded=1;fontSize=14;fontStyle=0;strokeWidth=2;resizeParent=0;resizeLast=1;shadow=0;dashed=0;align=center;fillColor=#fad9d5;strokeColor=none;swimlaneLine=0;fontColor=#000000;" parent="1" vertex="1">
                    <mxGeometry x="564" y="680" width="113" height="58" as="geometry">
                        <mxRectangle x="206" y="605" width="76" height="30" as="alternateBounds"/>
                    </mxGeometry>
                </mxCell>
                <mxCell id="170" value="" style="align=center;strokeColor=none;fillColor=#ffcccc;spacingLeft=4;fontSize=12;verticalAlign=top;resizable=0;rotatable=0;part=1;fontColor=#000000;" parent="169" vertex="1">
                    <mxGeometry y="30" width="113" height="28" as="geometry"/>
                </mxCell>
                <mxCell id="171" value="ORGANIZER" style="swimlane;childLayout=stackLayout;horizontal=1;startSize=30;horizontalStack=0;rounded=1;fontSize=14;fontStyle=0;strokeWidth=2;resizeParent=0;resizeLast=1;shadow=0;dashed=0;align=center;fillColor=#fad9d5;strokeColor=none;swimlaneLine=0;fontColor=#000000;" parent="1" vertex="1">
                    <mxGeometry x="579.5" y="387" width="113" height="58" as="geometry">
                        <mxRectangle x="206" y="605" width="76" height="30" as="alternateBounds"/>
                    </mxGeometry>
                </mxCell>
                <mxCell id="172" value="" style="align=center;strokeColor=none;fillColor=#ffcccc;spacingLeft=4;fontSize=12;verticalAlign=top;resizable=0;rotatable=0;part=1;fontColor=#000000;" parent="171" vertex="1">
                    <mxGeometry y="30" width="113" height="28" as="geometry"/>
                </mxCell>
                <mxCell id="175" value="USER" style="swimlane;childLayout=stackLayout;horizontal=1;startSize=30;horizontalStack=0;rounded=1;fontSize=14;fontStyle=0;strokeWidth=2;resizeParent=0;resizeLast=1;shadow=0;dashed=0;align=center;fillColor=#1ba1e2;fontColor=#ffffff;strokeColor=none;swimlaneLine=0;" parent="1" vertex="1">
                    <mxGeometry x="741.23" y="532.5" width="121.55" height="211" as="geometry">
                        <mxRectangle x="206" y="605" width="76" height="30" as="alternateBounds"/>
                    </mxGeometry>
                </mxCell>
                <mxCell id="176" value="firstname&#10;lastname&#10;age&#10;sex&#10;email&#10;password&#10;url avatar&#10;player license&#10;created at&#10;updated at" style="align=center;strokeColor=none;fillColor=#cce5ff;spacingLeft=4;fontSize=12;verticalAlign=middle;resizable=0;rotatable=0;part=1;fontColor=#000000;" parent="175" vertex="1">
                    <mxGeometry y="30" width="121.55" height="181" as="geometry"/>
                </mxCell>
                <mxCell id="177" value="ROLE" style="swimlane;childLayout=stackLayout;horizontal=1;startSize=30;horizontalStack=0;rounded=1;fontSize=14;fontStyle=0;strokeWidth=2;resizeParent=0;resizeLast=1;shadow=0;dashed=0;align=center;fillColor=#1ba1e2;fontColor=#ffffff;strokeColor=none;swimlaneLine=0;" parent="1" vertex="1">
                    <mxGeometry x="1032" y="676" width="101" height="62" as="geometry">
                        <mxRectangle x="206" y="605" width="76" height="30" as="alternateBounds"/>
                    </mxGeometry>
                </mxCell>
                <mxCell id="178" value="name" style="align=center;strokeColor=none;fillColor=#cce5ff;spacingLeft=4;fontSize=12;verticalAlign=middle;resizable=0;rotatable=0;part=1;fontColor=#000000;" parent="177" vertex="1">
                    <mxGeometry y="30" width="101" height="32" as="geometry"/>
                </mxCell>
                <mxCell id="179" value="HAS" style="ellipse;whiteSpace=wrap;html=1;align=center;rounded=1;fontSize=15;fillColor=#ffcccc;strokeColor=none;fontColor=#000000;" parent="1" vertex="1">
                    <mxGeometry x="930" y="689" width="43" height="40" as="geometry"/>
                </mxCell>
                <mxCell id="180" value="" style="edgeStyle=none;html=1;exitX=1;exitY=0.5;exitDx=0;exitDy=0;entryX=0;entryY=0.5;entryDx=0;entryDy=0;fontSize=15;fontColor=#000000;endArrow=none;endFill=0;strokeColor=#000000;startArrow=none;" parent="1" source="179" target="96" edge="1">
                    <mxGeometry relative="1" as="geometry">
                        <mxPoint x="925" y="719" as="sourcePoint"/>
                        <mxPoint x="939.9999999999993" y="719" as="targetPoint"/>
                        <Array as="points"/>
                    </mxGeometry>
                </mxCell>
                <mxCell id="181" value="" style="edgeStyle=none;html=1;entryX=1;entryY=0.5;entryDx=0;entryDy=0;fontSize=15;fontColor=#000000;endArrow=none;endFill=0;strokeColor=#000000;startArrow=none;exitX=-0.001;exitY=0.094;exitDx=0;exitDy=0;exitPerimeter=0;" parent="1" source="178" target="96" edge="1">
                    <mxGeometry relative="1" as="geometry">
                        <mxPoint x="1032" y="709" as="sourcePoint"/>
                        <mxPoint x="995" y="719" as="targetPoint"/>
                        <Array as="points"/>
                    </mxGeometry>
                </mxCell>
                <mxCell id="182" value="ADDRESS" style="swimlane;childLayout=stackLayout;horizontal=1;startSize=30;horizontalStack=0;rounded=1;fontSize=14;fontStyle=0;strokeWidth=2;resizeParent=0;resizeLast=1;shadow=0;dashed=0;align=center;fillColor=#1ba1e2;fontColor=#ffffff;strokeColor=none;swimlaneLine=0;" parent="1" vertex="1">
                    <mxGeometry x="1001.23" y="277" width="121.55" height="146.5" as="geometry">
                        <mxRectangle x="206" y="605" width="76" height="30" as="alternateBounds"/>
                    </mxGeometry>
                </mxCell>
                <mxCell id="183" value="street nb&#10;street&#10;zipcode&#10;city&#10;country&#10;complement" style="align=center;strokeColor=none;fillColor=#cce5ff;spacingLeft=4;fontSize=12;verticalAlign=middle;resizable=0;rotatable=0;part=1;fontColor=#000000;" parent="182" vertex="1">
                    <mxGeometry y="30" width="121.55" height="116.5" as="geometry"/>
                </mxCell>
                <mxCell id="188" value="HAS" style="ellipse;whiteSpace=wrap;html=1;align=center;rounded=1;fontSize=15;fillColor=#ffcccc;strokeColor=none;fontColor=#000000;" parent="1" vertex="1">
                    <mxGeometry x="978" y="529.5" width="43" height="40" as="geometry"/>
                </mxCell>
                <mxCell id="189" value="HAS" style="ellipse;whiteSpace=wrap;html=1;align=center;rounded=1;fontSize=15;fillColor=#ffcccc;strokeColor=none;fontColor=#000000;" parent="1" vertex="1">
                    <mxGeometry x="981" y="112" width="43" height="40" as="geometry"/>
                </mxCell>
                <mxCell id="191" value="GAMETYPE" style="swimlane;childLayout=stackLayout;horizontal=1;startSize=30;horizontalStack=0;rounded=1;fontSize=14;fontStyle=0;strokeWidth=2;resizeParent=0;resizeLast=1;shadow=0;dashed=0;align=center;fillColor=#1ba1e2;fontColor=#ffffff;strokeColor=none;swimlaneLine=0;" parent="1" vertex="1">
                    <mxGeometry x="30.5" y="239" width="101" height="62" as="geometry">
                        <mxRectangle x="206" y="605" width="76" height="30" as="alternateBounds"/>
                    </mxGeometry>
                </mxCell>
                <mxCell id="192" value="name" style="align=center;strokeColor=none;fillColor=#cce5ff;spacingLeft=4;fontSize=12;verticalAlign=middle;resizable=0;rotatable=0;part=1;fontColor=#000000;" parent="191" vertex="1">
                    <mxGeometry y="30" width="101" height="32" as="geometry"/>
                </mxCell>
                <mxCell id="194" value="DISCIPLINE" style="swimlane;childLayout=stackLayout;horizontal=1;startSize=30;horizontalStack=0;rounded=1;fontSize=14;fontStyle=0;strokeWidth=2;resizeParent=0;resizeLast=1;shadow=0;dashed=0;align=center;fillColor=#1ba1e2;fontColor=#ffffff;strokeColor=none;swimlaneLine=0;" parent="1" vertex="1">
                    <mxGeometry x="30.5" y="101" width="101" height="62" as="geometry">
                        <mxRectangle x="206" y="605" width="76" height="30" as="alternateBounds"/>
                    </mxGeometry>
                </mxCell>
                <mxCell id="195" value="name" style="align=center;strokeColor=none;fillColor=#cce5ff;spacingLeft=4;fontSize=12;verticalAlign=middle;resizable=0;rotatable=0;part=1;fontColor=#000000;" parent="194" vertex="1">
                    <mxGeometry y="30" width="101" height="32" as="geometry"/>
                </mxCell>
                <mxCell id="199" value="" style="align=center;strokeColor=none;fillColor=#cce5ff;spacingLeft=4;fontSize=12;verticalAlign=top;resizable=0;rotatable=0;part=1;fontColor=#000000;" parent="194" vertex="1">
                    <mxGeometry y="62" width="101" as="geometry"/>
                </mxCell>
                <mxCell id="196" value="HAS" style="ellipse;whiteSpace=wrap;html=1;align=center;rounded=1;fontSize=15;fillColor=#ffcccc;strokeColor=none;fontColor=#000000;" parent="1" vertex="1">
                    <mxGeometry x="239.45" y="250" width="43" height="40" as="geometry"/>
                </mxCell>
                <mxCell id="198" value="HAS" style="ellipse;whiteSpace=wrap;html=1;align=center;rounded=1;fontSize=15;fillColor=#ffcccc;strokeColor=none;fontColor=#000000;" parent="1" vertex="1">
                    <mxGeometry x="239.45" y="112" width="43" height="40" as="geometry"/>
                </mxCell>
                <mxCell id="200" value="HAS" style="ellipse;whiteSpace=wrap;html=1;align=center;rounded=1;fontSize=15;fillColor=#ffcccc;strokeColor=none;fontColor=#000000;" parent="1" vertex="1">
                    <mxGeometry x="311" y="444" width="43" height="40" as="geometry"/>
                </mxCell>
                <mxCell id="201" value="HAS" style="ellipse;whiteSpace=wrap;html=1;align=center;rounded=1;fontSize=15;fillColor=#ffcccc;strokeColor=none;fontColor=#000000;" parent="1" vertex="1">
                    <mxGeometry x="478.5" y="390" width="43" height="40" as="geometry"/>
                </mxCell>
                <mxCell id="202" value="HAS" style="ellipse;whiteSpace=wrap;html=1;align=center;rounded=1;fontSize=15;fillColor=#ffcccc;strokeColor=none;fontColor=#000000;" parent="1" vertex="1">
                    <mxGeometry x="780.5" y="396" width="43" height="40" as="geometry"/>
                </mxCell>
                <mxCell id="203" value="HAS" style="ellipse;whiteSpace=wrap;html=1;align=center;rounded=1;fontSize=15;fillColor=#ffcccc;strokeColor=none;fontColor=#000000;" parent="1" vertex="1">
                    <mxGeometry x="606" y="150" width="43" height="40" as="geometry"/>
                </mxCell>
                <mxCell id="204" value="CLUB" style="swimlane;childLayout=stackLayout;horizontal=1;startSize=30;horizontalStack=0;rounded=1;fontSize=14;fontStyle=0;strokeWidth=2;resizeParent=0;resizeLast=1;shadow=0;dashed=0;align=center;fillColor=#1ba1e2;fontColor=#ffffff;strokeColor=none;swimlaneLine=0;" parent="1" vertex="1">
                    <mxGeometry x="741.23" y="90" width="121.55" height="211" as="geometry">
                        <mxRectangle x="206" y="605" width="76" height="30" as="alternateBounds"/>
                    </mxGeometry>
                </mxCell>
                <mxCell id="205" value="name&#10;phone&#10;email&#10;url logo&#10;website&#10;ref club&#10;description&#10;created at&#10;updated at" style="align=center;strokeColor=none;fillColor=#cce5ff;spacingLeft=4;fontSize=12;verticalAlign=middle;resizable=0;rotatable=0;part=1;fontColor=#000000;" parent="204" vertex="1">
                    <mxGeometry y="30" width="121.55" height="181" as="geometry"/>
                </mxCell>
                <mxCell id="207" value="TOURNAMENT" style="swimlane;childLayout=stackLayout;horizontal=1;startSize=30;horizontalStack=0;rounded=1;fontSize=14;fontStyle=0;strokeWidth=2;resizeParent=0;resizeLast=1;shadow=0;dashed=0;align=center;fillColor=#1ba1e2;fontColor=#ffffff;strokeColor=none;swimlaneLine=0;verticalAlign=middle;" parent="1" vertex="1">
                    <mxGeometry x="394.5" y="103" width="127" height="193.5" as="geometry">
                        <mxRectangle x="206" y="605" width="76" height="30" as="alternateBounds"/>
                    </mxGeometry>
                </mxCell>
                <mxCell id="208" value="title&#10;date&#10;description&#10;url picture&#10;nb playground&#10;player limit&#10;created at&#10;updated at" style="align=center;strokeColor=none;fillColor=#cce5ff;spacingLeft=4;fontSize=12;verticalAlign=middle;resizable=0;rotatable=0;part=1;fontColor=#000000;" parent="207" vertex="1">
                    <mxGeometry y="30" width="127" height="163.5" as="geometry"/>
                </mxCell>
                <mxCell id="209" style="edgeStyle=none;html=1;exitX=0.5;exitY=0;exitDx=0;exitDy=0;entryX=0.5;entryY=1;entryDx=0;entryDy=0;fontSize=15;fontColor=#000000;endArrow=none;endFill=0;strokeColor=#000000;" parent="1" source="201" target="115" edge="1">
                    <mxGeometry relative="1" as="geometry">
                        <mxPoint x="510" y="306.5" as="targetPoint"/>
                        <mxPoint x="510" y="334" as="sourcePoint"/>
                    </mxGeometry>
                </mxCell>
                <mxCell id="210" value="STATUS" style="swimlane;childLayout=stackLayout;horizontal=1;startSize=30;horizontalStack=0;rounded=1;fontSize=14;fontStyle=0;strokeWidth=2;resizeParent=0;resizeLast=1;shadow=0;dashed=0;align=center;fillColor=#1ba1e2;fontColor=#ffffff;strokeColor=none;swimlaneLine=0;" parent="1" vertex="1">
                    <mxGeometry x="209" y="341" width="93" height="66" as="geometry">
                        <mxRectangle x="206" y="605" width="76" height="30" as="alternateBounds"/>
                    </mxGeometry>
                </mxCell>
                <mxCell id="211" value="name" style="align=center;strokeColor=none;fillColor=#cce5ff;spacingLeft=4;fontSize=12;verticalAlign=middle;resizable=0;rotatable=0;part=1;fontColor=#000000;" parent="210" vertex="1">
                    <mxGeometry y="30" width="93" height="36" as="geometry"/>
                </mxCell>
                <mxCell id="216" value="HAS" style="ellipse;whiteSpace=wrap;html=1;align=center;rounded=1;fontSize=15;fillColor=#ffcccc;strokeColor=none;fontColor=#000000;" parent="1" vertex="1">
                    <mxGeometry x="122" y="404" width="43" height="40" as="geometry"/>
                </mxCell>
                <UserObject label="&lt;font style=&quot;font-size: 15px ; line-height: 1&quot;&gt;1,1&lt;/font&gt;" lucidchartObjectId="3bly9.hPKQTv" id="217">
                    <mxCell style="html=1;overflow=block;blockSpacing=1;whiteSpace=wrap;fontSize=20.2;spacing=3.8;strokeOpacity=0;fillOpacity=100;rounded=1;absoluteArcSize=1;arcSize=35;fillColor=none;strokeWidth=2;align=center;strokeColor=#000000;fontColor=#000000;" parent="1" vertex="1">
                        <mxGeometry x="126" y="465" width="35" height="34" as="geometry"/>
                    </mxCell>
                </UserObject>
                <UserObject label="&lt;font style=&quot;font-size: 15px ; line-height: 1&quot;&gt;0,N&lt;/font&gt;" lucidchartObjectId="3bly9.hPKQTv" id="218">
                    <mxCell style="html=1;overflow=block;blockSpacing=1;whiteSpace=wrap;fontSize=20.2;spacing=3.8;strokeOpacity=0;fillOpacity=100;rounded=1;absoluteArcSize=1;arcSize=35;fillColor=none;strokeWidth=2;align=center;strokeColor=#000000;fontColor=#000000;" parent="1" vertex="1">
                        <mxGeometry x="158" y="357" width="35" height="34" as="geometry"/>
                    </mxCell>
                </UserObject>
                <mxCell id="219" style="edgeStyle=none;html=1;exitX=0.5;exitY=1;exitDx=0;exitDy=0;fontSize=15;fontColor=#000000;endArrow=none;endFill=0;strokeColor=#000000;entryX=0.25;entryY=0;entryDx=0;entryDy=0;" parent="1" source="217" target="158" edge="1">
                    <mxGeometry relative="1" as="geometry">
                        <mxPoint x="320.9999999999952" y="474" as="sourcePoint"/>
                        <mxPoint x="286.9999999999999" y="474" as="targetPoint"/>
                    </mxGeometry>
                </mxCell>
                <mxCell id="220" style="edgeStyle=none;html=1;exitX=0.5;exitY=1;exitDx=0;exitDy=0;fontSize=15;fontColor=#000000;endArrow=none;endFill=0;strokeColor=#000000;entryX=0.5;entryY=0;entryDx=0;entryDy=0;" parent="1" source="216" target="217" edge="1">
                    <mxGeometry relative="1" as="geometry">
                        <mxPoint x="153.5" y="509" as="sourcePoint"/>
                        <mxPoint x="153.7500000000001" y="526" as="targetPoint"/>
                    </mxGeometry>
                </mxCell>
                <mxCell id="221" style="edgeStyle=none;html=1;exitX=0;exitY=0.5;exitDx=0;exitDy=0;fontSize=15;fontColor=#000000;endArrow=none;endFill=0;strokeColor=#000000;entryX=0.5;entryY=0;entryDx=0;entryDy=0;" parent="1" source="218" target="216" edge="1">
                    <mxGeometry relative="1" as="geometry">
                        <mxPoint x="153.5" y="454" as="sourcePoint"/>
                        <mxPoint x="153.5" y="474.9999999999999" as="targetPoint"/>
                        <Array as="points">
                            <mxPoint x="144" y="374"/>
                        </Array>
                    </mxGeometry>
                </mxCell>
                <mxCell id="222" style="edgeStyle=none;html=1;exitX=0;exitY=0.5;exitDx=0;exitDy=0;fontSize=15;fontColor=#000000;endArrow=none;endFill=0;strokeColor=#000000;entryX=1;entryY=0.5;entryDx=0;entryDy=0;" parent="1" source="210" target="218" edge="1">
                    <mxGeometry relative="1" as="geometry">
                        <mxPoint x="178" y="384" as="sourcePoint"/>
                        <mxPoint x="153.5" y="414" as="targetPoint"/>
                    </mxGeometry>
                </mxCell>
                <mxCell id="224" style="edgeStyle=none;html=1;exitX=0;exitY=0.5;exitDx=0;exitDy=0;fontSize=15;fontColor=#000000;endArrow=none;endFill=0;strokeColor=#000000;entryX=1;entryY=0.5;entryDx=0;entryDy=0;" parent="1" source="228" target="210" edge="1">
                    <mxGeometry relative="1" as="geometry">
                        <mxPoint x="312" y="374" as="sourcePoint"/>
                        <mxPoint x="213" y="384" as="targetPoint"/>
                    </mxGeometry>
                </mxCell>
                <mxCell id="225" value="HAS" style="ellipse;whiteSpace=wrap;html=1;align=center;rounded=1;fontSize=15;fillColor=#ffcccc;strokeColor=none;fontColor=#000000;" parent="1" vertex="1">
                    <mxGeometry x="364" y="354" width="43" height="40" as="geometry"/>
                </mxCell>
                <mxCell id="226" style="edgeStyle=none;html=1;exitX=0;exitY=0.5;exitDx=0;exitDy=0;fontSize=15;fontColor=#000000;endArrow=none;endFill=0;strokeColor=#000000;entryX=1;entryY=0.5;entryDx=0;entryDy=0;" parent="1" source="225" target="228" edge="1">
                    <mxGeometry relative="1" as="geometry">
                        <mxPoint x="346" y="384" as="sourcePoint"/>
                        <mxPoint x="370" y="374" as="targetPoint"/>
                    </mxGeometry>
                </mxCell>
                <mxCell id="227" style="edgeStyle=none;html=1;exitX=0.5;exitY=1;exitDx=0;exitDy=0;fontSize=15;fontColor=#000000;endArrow=none;endFill=0;strokeColor=#000000;entryX=1;entryY=0.5;entryDx=0;entryDy=0;" parent="1" source="229" target="225" edge="1">
                    <mxGeometry relative="1" as="geometry">
                        <mxPoint x="346" y="384" as="sourcePoint"/>
                        <mxPoint x="437" y="369" as="targetPoint"/>
                        <Array as="points">
                            <mxPoint x="426" y="374"/>
                        </Array>
                    </mxGeometry>
                </mxCell>
                <UserObject label="&lt;font style=&quot;font-size: 15px ; line-height: 1&quot;&gt;0,N&lt;/font&gt;" lucidchartObjectId="3bly9.hPKQTv" id="228">
                    <mxCell style="html=1;overflow=block;blockSpacing=1;whiteSpace=wrap;fontSize=20.2;spacing=3.8;strokeOpacity=0;fillOpacity=100;rounded=1;absoluteArcSize=1;arcSize=35;fillColor=none;strokeWidth=2;align=center;strokeColor=#000000;fontColor=#000000;" parent="1" vertex="1">
                        <mxGeometry x="317.22" y="357" width="35" height="34" as="geometry"/>
                    </mxCell>
                </UserObject>
                <UserObject label="&lt;font style=&quot;font-size: 15px ; line-height: 1&quot;&gt;1,1&lt;/font&gt;" lucidchartObjectId="3bly9.hPKQTv" id="229">
                    <mxCell style="html=1;overflow=block;blockSpacing=1;whiteSpace=wrap;fontSize=20.2;spacing=3.8;strokeOpacity=0;fillOpacity=100;rounded=1;absoluteArcSize=1;arcSize=35;fillColor=none;strokeWidth=2;align=center;strokeColor=#000000;fontColor=#000000;" parent="1" vertex="1">
                        <mxGeometry x="409" y="315" width="35" height="34" as="geometry"/>
                    </mxCell>
                </UserObject>
                <mxCell id="230" style="edgeStyle=none;html=1;exitX=0.5;exitY=0;exitDx=0;exitDy=0;fontSize=15;fontColor=#000000;endArrow=none;endFill=0;strokeColor=#000000;entryX=0.25;entryY=1;entryDx=0;entryDy=0;" parent="1" source="229" target="208" edge="1">
                    <mxGeometry relative="1" as="geometry">
                        <mxPoint x="427" y="297" as="targetPoint"/>
                        <mxPoint x="510" y="400" as="sourcePoint"/>
                    </mxGeometry>
                </mxCell>
            </root>
        </mxGraphModel>
    </diagram>
</mxfile>